<svg id="visual" viewBox="0 0 900 600" width="900" height="600" xmlns="http://www.w3.org/2000/svg" xmlns:xlink="http://www.w3.org/1999/xlink" version="1.1"><path d="M0 79L90 115L180 97L270 103L360 73L450 91L540 73L630 91L720 85L810 145L900 91L900 0L810 0L720 0L630 0L540 0L450 0L360 0L270 0L180 0L90 0L0 0Z" fill="#4fb5f7"></path><path d="M0 229L90 199L180 283L270 193L360 181L450 211L540 193L630 247L720 235L810 241L900 253L900 89L810 143L720 83L630 89L540 71L450 89L360 71L270 101L180 95L90 113L0 77Z" fill="#5094ca"></path><path d="M0 277L90 229L180 313L270 235L360 223L450 295L540 247L630 295L720 265L810 313L900 313L900 251L810 239L720 233L630 245L540 191L450 209L360 179L270 191L180 281L90 197L0 227Z" fill="#4b759e"></path><path d="M0 481L90 475L180 487L270 397L360 457L450 475L540 475L630 445L720 493L810 481L900 439L900 311L810 311L720 263L630 293L540 245L450 293L360 221L270 233L180 311L90 227L0 275Z" fill="#405774"></path><path d="M0 529L90 511L180 523L270 505L360 571L450 553L540 553L630 541L720 541L810 559L900 547L900 437L810 479L720 491L630 443L540 473L450 473L360 455L270 395L180 485L90 473L0 479Z" fill="#323c4d"></path><path d="M0 601L90 601L180 601L270 601L360 601L450 601L540 601L630 601L720 601L810 601L900 601L900 545L810 557L720 539L630 539L540 551L450 551L360 569L270 503L180 521L90 509L0 527Z" fill="#212328"></path></svg>